<svg xmlns="http://www.w3.org/2000/svg" height="512" viewBox="0 0 96 96" width="512"><g data-name="26-royalty customer"><circle cx="48" cy="20" r="20"></circle><path d="M42.633 80.684c-3.458-6.919-1.4-16.322 4.7-21.406A15.659 15.659 0 0157.369 55.7 21.452 21.452 0 0168 58.819a23.176 23.176 0 018-2.919V52a12.013 12.013 0 00-12-12H32a12.013 12.013 0 00-12 12v32a4 4 0 004 4h24.5a26.934 26.934 0 01-5.867-7.316z"></path><path d="M86.108 62.349c-2.266-1.893-8.451-5.417-18.108 1.19-9.659-6.608-15.843-3.081-18.108-1.19-4.651 3.881-6.3 11.3-3.681 16.546 4.2 8.4 20.209 16.547 20.888 16.89a2 2 0 001.8 0c.679-.343 16.688-8.491 20.888-16.89 2.623-5.243.972-12.665-3.679-16.546zM80 76a4 4 0 114-4 4 4 0 01-4 4z"></path></g></svg>