<svg xmlns="http://www.w3.org/2000/svg" height="512" viewBox="0 0 64 64" width="512"><path d="M26 39.159a9.93 9.93 0 01-8 0v1.479l4 4.8 4-4.8zM20.542 48.847L21.618 51h.764l1.076-2.153L22 48.118zM14.387 42l2.197 6.59 3.839-1.92L16.531 42zM29.613 42h-2.144l-3.892 4.67 3.839 1.92zM32 30c1.103 0 2-.897 2-2s-.897-2-2-2zM13 23h6a5.025 5.025 0 004-2l1.2-1.601c.377-.502 1.223-.502 1.6 0l1.2 1.6A5.023 5.023 0 0031 23a1 1 0 011 1c.347 0 .678.058 1 .142V22c0-6.065-4.935-11-11-11s-11 4.935-11 11v2.142A3.939 3.939 0 0112 24a1 1 0 011-1z"></path><path d="M33 42h-1.28l-2.772 8.316a1 1 0 01-1.395.579l-2.305-1.153-1.199 2.399L25.82 61H35v-6h2v6h4V50c0-4.411-3.589-8-8-8zM30 24.927a7.038 7.038 0 01-4.6-2.728l-.4-.533-.4.534A7.035 7.035 0 0119 25h-5v5c0 4.411 3.589 8 8 8s8-3.589 8-8zM16.447 50.895a1.001 1.001 0 01-1.395-.578L12.28 42H11c-4.411 0-8 3.589-8 8v11h4v-6h2v6h9.18l1.772-8.859-1.199-2.399zM21.82 53l-1.6 8h3.56l-1.6-8zM12 30v-4c-1.103 0-2 .897-2 2s.897 2 2 2zM60 24V10h-4v14h-4v-8h-4v8h-4v-5h-4v5h-3v2h26v-2zM46.414 7H52c.266 0 .52-.105.707-.293L55 4.414V7h2V2a1 1 0 00-1-1h-5v2h2.586l-2 2H46a.996.996 0 00-.707.293l-6 6 1.414 1.414zM44.293 28.293L32.586 40H33c.746 0 1.47.089 2.17.244L45.414 30H63v-2H45a.996.996 0 00-.707.293z"></path></svg>