<svg xmlns="http://www.w3.org/2000/svg" height="448pt" viewBox="-8 0 448 448" width="448pt"><path d="M215.465 379.719a108.527 108.527 0 01-8.313-20l-25.09-6.27a8.001 8.001 0 01-6.062-7.761v-35.344c0-3.672 2.5-6.871 6.063-7.758l25.09-6.274a108.64 108.64 0 018.312-20l-13.313-22.183a8 8 0 011.2-9.777l24.968-24.97a8.006 8.006 0 019.778-1.198l22.183 13.312a108.527 108.527 0 0120-8.312l6.27-25.086a8.005 8.005 0 017.761-6.067h35.313a7.997 7.997 0 017.758 6.067l6.273 25.086a109.364 109.364 0 0111.2 4.046 114.643 114.643 0 018.855 4.266L384 219.29V16c0-8.836-7.164-16-16-16h-32c-8.836 0-16 7.164-16 16v24c0 8.836 7.164 16 16 16s16-7.164 16-16v-8h-16V16h24a8 8 0 018 8v16c0 17.672-14.328 32-32 32H32v272h96a8.024 8.024 0 013.574.8l32 16a7.993 7.993 0 014.434 7.16 8.001 8.001 0 01-4.434 7.161l-32 16A8 8 0 01128 392H32v24h175.672l-4.32-4.32a8 8 0 01-1.2-9.778zM352 80h16v128h-16zM184 232h-80v-16h80zm144-56h-96v-16h96zm-96-32v-16h16v16zm96 0h-64v-16h64zm-16-48h16v16h-16zM57.777 121.777c30.598-30.675 79.008-34.414 113.95-8.8l14.617-14.618A8.002 8.002 0 01192 96h104v16H195.312l-11.535 11.535A87.639 87.639 0 01208 184a8 8 0 01-8 8h-80a8.001 8.001 0 01-5.656-2.344L57.777 133.09c-3.125-3.125-3.125-8.192 0-11.313zM88 216v16H72v-16zm72 80H56v-16h104zM56 264v-16h128v16zm0 0"></path><path d="M191.55 176a71.721 71.721 0 00-19.046-41.191l-22.848 22.847-11.312-11.312 21.922-21.918c-26.055-17.719-60.618-16.375-85.211 3.316L123.312 176zm0 0M16 56h292.45A31.665 31.665 0 01304 40V16a31.665 31.665 0 014.45-16H16C7.164 0 0 7.164 0 16v24c0 8.836 7.164 16 16 16zm0 0M104 360H8a8 8 0 000 16h96zm0 0M126.113 360H120v16h6.113l16-8zm0 0M408.457 310.703a7.998 7.998 0 01-5.824-5.793 92.656 92.656 0 00-10.227-24.652 8.018 8.018 0 010-8.211l12.496-20.8-16.101-16.169L368 247.574a7.99 7.99 0 01-8.215 0 92.472 92.472 0 00-24.648-10.215 8.004 8.004 0 01-5.793-5.824L323.406 208h-22.812l-5.89 23.543a7.998 7.998 0 01-5.794 5.824 92.656 92.656 0 00-24.652 10.227 8.018 8.018 0 01-8.211 0l-20.8-12.496-16.169 16.101L231.574 272a7.993 7.993 0 010 8.207 92.724 92.724 0 00-10.222 24.656 8.004 8.004 0 01-5.825 5.793L192 316.594v22.812l23.543 5.89a7.998 7.998 0 015.824 5.794 92.656 92.656 0 0010.227 24.652 8.018 8.018 0 010 8.211l-12.496 20.8 16.101 16.169L256 408.426a7.993 7.993 0 018.207 0 92.724 92.724 0 0024.656 10.222 8.004 8.004 0 015.793 5.825L300.594 448h22.812l5.89-23.543a7.998 7.998 0 015.794-5.824 92.656 92.656 0 0024.652-10.227 8.018 8.018 0 018.211 0l20.8 12.496 16.169-16.101L392.426 384a7.993 7.993 0 010-8.207 92.724 92.724 0 0010.222-24.656 8.004 8.004 0 015.825-5.793L432 339.406v-22.812zM312 392c-35.348 0-64-28.652-64-64s28.652-64 64-64 64 28.652 64 64c-.04 35.328-28.672 63.96-64 64zm0 0"></path><path d="M360 328c0 26.508-21.492 48-48 48s-48-21.492-48-48 21.492-48 48-48 48 21.492 48 48zm0 0"></path></svg>