<svg xmlns="http://www.w3.org/2000/svg" viewBox="0 0 64 64"><path d="M43 45v-5.544a5.984 5.984 0 01-5.236-4.416L37 35.8V41a5.006 5.006 0 005 5 1 1 0 001-1z"></path><path d="M24.011 31.886a1 1 0 011.156.187L27 33.906V33a5 5 0 0110-.022l.905-.905a1 1 0 011.7.852 4 4 0 103.4-3.4 1 1 0 01-.852-1.7l6.363-6.373-4.482-4.481a6 6 0 11-8-8L31.54 4.494l-6.373 6.363a1 1 0 01-1.7-.852 4 4 0 00-1.128-3.388 4.1 4.1 0 00-5.656 0 4 4 0 003.392 6.783 1 1 0 01.852 1.7l-6.364 6.36 6.365 6.373a1 1 0 01-.853 1.7 4 4 0 103.4 3.4 1 1 0 01.536-1.047z"></path><path d="M35.316 58.131l1-2a7.026 7.026 0 000-6.26l-.366-.734a9.05 9.05 0 01-.95-4.026V33a3 3 0 00-6 0v14a1 1 0 01-2 0V36.734l-1.694-1.693a5.989 5.989 0 01-5.791 4.442c-.106 0-.209-.01-.314-.015l-2.446 7.04a3.036 3.036 0 00.088 2.744.9.9 0 01.048.1l3.509 8.304a5.062 5.062 0 01.6 2.384V61h14v-1.528a3.014 3.014 0 01.316-1.341zM61 23h-6a1 1 0 010-2h6a1 1 0 010 2zM53.919 11.5a1 1 0 01-.5-1.866l5.2-3a1 1 0 011 1.732l-5.2 3a.992.992 0 01-.5.134zM59.114 37.5a.992.992 0 01-.5-.134l-5.2-3a1 1 0 111-1.732l5.2 3a1 1 0 01-.5 1.866zM9 23H3a1 1 0 010-2h6a1 1 0 010 2zM10.081 11.5a.992.992 0 01-.5-.134l-5.2-3a1 1 0 011-1.732l5.2 3a1 1 0 01-.5 1.866zM4.886 37.5a1 1 0 01-.5-1.866l5.2-3a1 1 0 111 1.732l-5.2 3a.992.992 0 01-.5.134z"></path></svg>