<svg xmlns="http://www.w3.org/2000/svg" viewBox="0 0 512 512"><path d="M391 0H121C87.863 0 61 26.863 61 60s26.863 60 60 60h7.5c12.407 0 22.5-10.093 22.5-22.5S140.907 75 128.5 75c-8.284 0-15-6.716-15-15s6.716-15 15-15c28.949 0 52.5 23.551 52.5 52.5a52.175 52.175 0 01-5.076 22.5h160.152A52.175 52.175 0 01331 97.5c0-28.949 23.551-52.5 52.5-52.5 8.284 0 15 6.716 15 15s-6.716 15-15 15C371.093 75 361 85.093 361 97.5s10.093 22.5 22.5 22.5h7.5c33.137 0 60-26.863 60-60S424.137 0 391 0zM121 165c0 16.569 13.431 30 30 30h210c16.569 0 30-13.431 30-30v-15H121zM376 482H136c-8.284 0-15 6.716-15 15s6.716 15 15 15h240c8.284 0 15-6.716 15-15s-6.716-15-15-15zM151 225v227h210V225zm82.5 189.5c0 8.284-6.716 15-15 15s-15-6.716-15-15v-152c0-8.284 6.716-15 15-15s15 6.716 15 15zm75 0c0 8.284-6.716 15-15 15s-15-6.716-15-15v-152c0-8.284 6.716-15 15-15s15 6.716 15 15z"></path></svg>