<svg xmlns="http://www.w3.org/2000/svg" viewBox="0 0 512.004 512.004"><path d="M405.335 0H177.069c59.733 38.4 74.667 117.333 36.267 177.067-8.533 14.933-21.333 27.733-36.267 36.267h228.267c59.733 0 106.667-46.933 106.667-106.667S465.069 0 405.335 0z"></path><path d="M106.669 0C46.935 0 .002 46.933.002 106.667s46.933 106.667 106.667 106.667S213.335 166.4 213.335 106.667 166.402 0 106.669 0zm0 149.333c-23.467 0-42.667-19.2-42.667-42.667S83.202 64 106.669 64s42.667 19.2 42.667 42.667-19.201 42.666-42.667 42.666zM411.735 328.533c-2.133 2.133-4.267 2.133-6.4 2.133s-4.267 0-6.4-2.133l-57.6-38.4-57.6 38.4c-4.267 2.133-8.533 2.133-12.8 0l-57.6-38.4-57.6 38.4c-4.267 2.133-8.533 2.133-12.8 0l-57.6-38.4-57.6 38.4c-4.267 2.133-8.533 2.133-12.8 0L.002 317.867v81.067l21.333 14.933 57.6-38.4c4.267-2.133 8.533-2.133 12.8 0l57.6 38.4 57.6-38.4c4.267-2.133 8.533-2.133 12.8 0l57.6 38.4 57.6-38.4c4.267-2.133 8.533-2.133 12.8 0l57.6 38.4 21.333-14.933v-81.067l-14.933 10.666z"></path><path d="M106.669 234.667c-42.667 0-83.2-21.333-106.667-57.6v115.2L21.335 307.2l57.6-38.4c4.267-2.133 8.533-2.133 12.8 0l57.6 38.4 57.6-38.4c4.267-2.133 8.533-2.133 12.8 0l57.6 38.4 57.6-38.4c4.267-2.133 8.533-2.133 12.8 0l57.6 38.4 21.333-14.933v-57.6H106.669zM407.469 435.2c2.133 2.133 0 2.133-2.133 2.133s-4.267 0-6.4-2.133l-57.6-38.4-57.6 38.4c-4.267 2.133-8.533 2.133-12.8 0l-57.6-38.4-57.6 38.4c-4.267 2.133-8.533 2.133-12.8 0l-57.6-38.4-57.6 38.4c-4.267 2.133-8.533 2.133-12.8 0L.002 424.533v66.133c0 17.067 19.2 27.733 34.133 17.067l51.2-34.133 51.2 34.133c6.4 4.267 17.067 4.267 23.467 0l51.2-34.133 51.2 34.133c6.4 4.267 17.067 4.267 23.467 0l51.2-34.133 51.2 34.133c14.933 8.533 32-2.133 34.133-17.067v-66.133L407.469 435.2z"></path></svg>