<svg xmlns="http://www.w3.org/2000/svg" viewBox="0 0 511.998 511"><path d="M70.621 353.578h123.586V424.2H70.621zm0 0M282.484 284.547v51.375H406.07V265.3H372.88zm0 0M188.91 265.3h-47.668v70.622h123.586v-47.668l-56.32 12.004a23.015 23.015 0 01-4.238.441c-7.196-.082-13.829-3.898-17.52-10.074s-3.91-13.828-.578-20.203zm0 0M17.656 300.613H0v35.309h123.586V265.3H0v17.656h17.656a8.829 8.829 0 010 17.656zm35.309-17.656h35.312c4.875 0 8.825 3.953 8.825 8.828s-3.95 8.828-8.825 8.828H52.965a8.829 8.829 0 010-17.656zm0 0M211.863 353.578H335.45V424.2H211.863zm0 0"></path><path d="M299.344 217.633a8.956 8.956 0 01-7.063-3.531c-2.91-3.903-2.12-9.426 1.766-12.36l36.457-27.363-39.899-53.145A2.988 2.988 0 00288.22 120h-.176a1.92 1.92 0 00-1.586 1.059l-84.746 157.66a3.017 3.017 0 003.176 4.238l175.14-37.254a1.604 1.604 0 001.414-1.234 2.797 2.797 0 00-.441-2.739l-39.902-53.23-36.457 27.367a9.102 9.102 0 01-5.297 1.766zm0 0M353.102 353.578h123.59V424.2h-123.59zm0 0M282.484 441.852H406.07v70.62H282.484zm0 0M0 441.852h123.586v70.62H0zm0 0M141.242 441.852h123.586v70.62H141.242zm0 0"></path><path d="M501.762 11.066C492.965-.602 476.395-2.969 464.684 5.77l-72.829 54.644a8.855 8.855 0 00-1.765 12.36l7.77 10.328-18.364 13.77a30.492 30.492 0 00-12.18 26.218l.883 15.89a12.854 12.854 0 01-5.207 11.032l-32.488 24.367 10.594 14.121 32.484-24.363a30.33 30.33 0 0012.184-26.13l-.883-15.89a13.118 13.118 0 015.207-11.12l18.363-13.774 7.766 10.328a9.105 9.105 0 005.828 3.445c.406.074.82.106 1.234.086a8.862 8.862 0 005.297-1.766l72.828-54.64c11.696-8.778 14.067-25.375 5.297-37.078zm-10.95 29.485l-65.765 49.347-7.766-10.328-7.77-10.328 65.766-49.347a8.84 8.84 0 0112.36 1.765l4.941 6.531a8.684 8.684 0 011.68 6.536 8.887 8.887 0 01-3.445 5.824zm0 0"></path></svg>