<svg xmlns="http://www.w3.org/2000/svg" viewBox="0 1 511 511.999"><path d="M403.863 108.637c9.594 3.703 18.34 9.343 25.649 16.652l11.785 11.82V86.2c0-8.101-6.899-15-15-15h-50.914l11.824 11.785c7.309 7.313 12.95 16.055 16.656 25.653zm0 0M441.297 425.797v-50.914l-11.785 11.824c-7.313 7.309-16.055 12.95-25.649 16.656-3.707 9.594-9.347 18.34-16.656 25.649l-11.82 11.785h50.91c8.101 0 15-6.899 15-15zm0 0M83.484 386.707L71.7 374.887v50.91c0 8.101 6.899 15 15 15h50.922l-11.832-11.785c-7.309-7.309-12.95-16.055-16.652-25.649-9.598-3.707-18.34-9.347-25.653-16.656zm0 0M109.133 108.637c3.707-9.598 9.347-18.34 16.656-25.653L137.613 71.2H86.7c-8.101 0-15 6.899-15 15v50.914l11.785-11.824c7.313-7.309 16.055-12.95 25.649-16.652zm0 0M116.7 241h43.59l21.21-21.21v-17.58l-64.223-64.222c-4.53 2.102-8.855 4.79-12.578 8.508l-3 3.004V226c0 8.398 6.899 15 15 15zm0 0M181.5 292.21L160.29 271H116.7c-8.102 0-15 6.598-15 15v76.5l3 3c3.722 3.723 8.046 6.406 12.577 8.512l64.223-64.223zm0 0M256.5 82.898C264.598 75.7 275.098 71 286.5 71H333L267 4.5c-5.703-6-15.3-6-21 0L180 71h46.5c11.398 0 21.898 4.7 30 11.898zm0 0M396.297 241c8.101 0 15-6.602 15-15v-76.5l-3-3.004c-3.723-3.719-8.043-6.406-12.574-8.508L331.5 202.211v17.574L352.71 241zm0 0M286.5 211a14.99 14.99 0 01-10.605-4.395L256.5 187.211l-19.398 19.394A14.973 14.973 0 01226.5 211h-15v15c0 3.984-1.582 7.793-4.398 10.605L187.71 256l19.394 19.395A14.99 14.99 0 01211.5 286v15h15c3.984 0 7.793 1.582 10.602 4.395l19.398 19.394 19.395-19.394A14.982 14.982 0 01286.5 301h15v-15a14.99 14.99 0 014.395-10.605L325.289 256l-19.398-19.395A15.002 15.002 0 01301.5 226v-15zm0 0M408.297 365.5l3-3.004V286c0-8.402-6.899-15-15-15H352.71L331.5 292.21v17.575l64.219 64.223c4.535-2.102 8.855-4.79 12.578-8.508zm0 0M271.5 116.2v43.585L292.71 181h17.58l64.218-64.223c-2.102-4.53-4.79-8.855-8.508-12.578l-3.004-3H286.5c-8.402 0-15 6.899-15 15zm0 0M366 407.797c3.719-3.723 6.406-8.043 8.512-12.578L310.289 331h-17.578L271.5 352.21v43.587c0 8.101 6.598 15 15 15H363zm0 0M441.5 226c0 11.7-4.703 22.2-11.902 30 7.203 7.8 11.902 18.3 11.902 30v46.5l66.496-66c6-5.7 6-15.3 0-21l-66.496-66zm0 0M220.29 181l21.21-21.21V116.2c0-8.102-6.602-15-15-15H150l-3.004 3c-3.719 3.722-6.406 8.042-8.508 12.577L202.711 181zm0 0M256.5 512c3.898 0 7.797-1.5 10.496-4.504l66-66.496H286.5c-11.703 0-22.203-4.7-30-11.898-7.8 7.199-18.3 11.898-30 11.898H180l66 66.496c2.7 3.004 6.598 4.504 10.5 4.504zm0 0M150 410.797h76.5c8.398 0 15-6.899 15-15V352.21L220.29 331h-17.58l-64.222 64.223c2.102 4.53 4.79 8.851 8.512 12.578zm0 0M71.5 332.496V286c0-11.7 4.7-22.2 11.898-30C76.2 248.2 71.5 237.7 71.5 226v-46.5L5 245.5c-6 5.7-6 15.297 0 20.996zm0 0"></path></svg>